Coordinates
version=1
nRows=39
nColumns=18
inDegrees=yes

Units are S.I. units (second, meters, Newtons, ...)
Angles are in degrees.

endheader
time	pelvis_tilt	pelvis_list	pelvis_rotation	pelvis_tx	pelvis_ty	pelvis_tz	hip_flexion_r	hip_adduction_r	hip_rotation_r	knee_angle_r	ankle_angle_r	hip_flexion_l	hip_adduction_l	hip_rotation_l	knee_angle_l	ankle_angle_l	lumbar_extension
      0.00000000	      0.13595377	     -1.32199673	      2.34638327	     -1.53140577	      0.90361419	     -0.19952748	     22.23410608	      1.64024387	      0.00000000	     -3.11178965	      1.88779976	    -18.56146427	      2.79566983	      0.00000000	      1.73990576	     12.12098343	     -5.00000214
      0.01000000	      0.11535851	     -1.18361529	      2.51391242	     -1.51962002	      0.90236172	     -0.19909061	     22.02241025	      1.51024761	      0.00000000	     -2.01146571	      1.69640625	    -18.99385681	      2.77484442	      0.00000000	      1.02481829	     12.14947231	     -5.00000214
      0.02000000	      0.11488718	     -1.05337884	      2.65441600	     -1.50771167	      0.90112383	     -0.19859418	     21.81844722	      1.40873038	      0.00000000	     -1.18600531	      1.41852345	    -19.46327538	      2.74372661	      0.00000000	      0.34908345	     12.15941680	     -5.00000214
      0.03000000	      0.11572811	     -0.92902336	      2.64798213	     -1.49571818	      0.89988747	     -0.19786066	     21.83470207	      1.39075490	      0.00000000	     -1.15487922	      1.31624080	    -20.01249455	      2.73677621	      0.00000000	     -0.16455371	     12.11955052	     -5.00000214
      0.04000000	      0.09763476	     -0.82340163	      2.83032211	     -1.48372167	      0.89891577	     -0.19728824	     21.61812936	      1.33819531	      0.00000000	     -1.04927779	      0.17062890	    -20.25802127	      2.63238182	      0.00000000	     -1.19675617	     11.96336684	     -5.00000214
      0.05000000	      0.06529100	     -0.70929254	      2.85209469	     -1.47170760	      0.89802814	     -0.19650895	     21.68345521	      1.34460680	      0.00000000	     -1.90503259	     -0.46235639	    -20.53782083	      2.57995809	      0.00000000	     -2.11141426	     11.67676626	     -5.00000214
      0.06000000	      0.00474888	     -0.60797033	      2.80673090	     -1.45977144	      0.89737122	     -0.19559557	     21.85812448	      1.39248553	      0.00000000	     -3.22936400	     -1.29427834	    -20.68185426	      2.53509763	      0.00000000	     -3.19264288	     11.29709879	     -5.00000214
      0.07000000	     -0.09891957	     -0.52657689	      2.73946332	     -1.44799055	      0.89698102	     -0.19457504	     22.20299897	      1.47108592	      0.00000000	     -4.97918794	     -2.08528738	    -20.63231706	      2.47445566	      0.00000000	     -4.49584561	     10.79693241	     -5.00000214
      0.08000000	     -0.25752604	     -0.44969654	      2.62446434	     -1.43641104	      0.89688601	     -0.19352300	     22.80674965	      1.55695628	      0.00000000	     -7.14984758	     -2.55961489	    -20.36459904	      2.44336061	      0.00000000	     -6.03587550	     10.15769662	     -5.00000214
      0.09000000	     -0.43565103	     -0.36481090	      2.51113183	     -1.42482722	      0.89707014	     -0.19254253	     23.65683952	      1.61658236	      0.00000000	     -9.77827801	     -2.22026534	    -19.88001789	      2.44376123	      0.00000000	     -7.90767229	      9.34062103	     -5.00000214
      0.10000000	     -0.59772977	     -0.27326535	      2.39014786	     -1.41306846	      0.89748344	     -0.19168629	     24.66445186	      1.64519400	      0.00000000	    -12.72514637	     -1.96226449	    -19.31880697	      2.48858140	      0.00000000	     -9.90406208	      8.33575663	     -5.00000214
      0.11000000	     -0.71997855	     -0.17952044	      2.32290070	     -1.40096259	      0.89802957	     -0.19093951	     25.63302039	      1.64299225	      0.00000000	    -15.73516147	     -1.24624124	    -18.66481527	      2.54418160	      0.00000000	    -12.12329043	      7.06344533	     -5.00000214
      0.12000000	     -0.75872227	     -0.06428976	      2.31444162	     -1.38834291	      0.89872985	     -0.19040884	     26.29910854	      1.58609204	      0.00000000	    -18.45030503	      0.37702583	    -18.02260635	      2.63188984	      0.00000000	    -14.43391684	      5.16302180	     -5.00000214
      0.13000000	     -0.76722761	      0.05330714	      2.29532042	     -1.37560591	      0.89956179	     -0.18989347	     26.63005330	      1.53654075	      0.00000000	    -20.60771593	      1.46320440	    -17.30465179	      2.75393686	      0.00000000	    -16.83664335	      2.91675072	     -5.00000214
      0.14000000	     -0.80386321	      0.19422150	      2.35698028	     -1.36312069	      0.90049358	     -0.18959011	     26.61531390	      1.43541999	      0.00000000	    -22.06501882	      2.26941030	    -16.26685826	      2.90235085	      0.00000000	    -19.63329717	      0.74116143	     -5.00000214
      0.15000000	     -0.74215213	      0.33458429	      2.38217975	     -1.35023957	      0.90169732	     -0.18919889	     26.11896960	      1.35749054	      0.00000000	    -22.93306977	      3.63691854	    -15.36306428	      3.05570644	      0.00000000	    -22.19296851	     -2.45723209	     -5.00000214
      0.16000000	     -0.76826128	      0.41207306	      2.43836956	     -1.33798358	      0.90279488	     -0.18856917	     25.55263648	      1.36627235	      0.00000000	    -23.44655592	      4.68848691	    -14.01434918	      3.12873334	      0.00000000	    -25.25580043	     -5.02988162	     -5.00000214
      0.17000000	     -0.81395248	      0.46854529	      2.59612793	     -1.32603579	      0.90395216	     -0.18789594	     24.82751512	      1.37459723	      0.00000000	    -23.63849031	      5.79396641	    -12.41751411	      3.12550969	      0.00000000	    -28.59033487	     -7.35899512	     -5.00000214
      0.18000000	     -0.90920206	      0.50087173	      2.74668814	     -1.31458033	      0.90504942	     -0.18719430	     24.11341357	      1.40047323	      0.00000000	    -23.71214354	      6.78830381	    -10.58150019	      3.11804406	      0.00000000	    -32.14706961	     -9.01984596	     -5.00000214
      0.19000000	     -0.99489460	      0.45552456	      2.94407387	     -1.30328132	      0.90630688	     -0.18629366	     23.18850940	      1.51198861	      0.00000000	    -23.37958739	      7.59025668	     -8.66564472	      3.00831888	      0.00000000	    -35.75594883	     -9.98471055	     -5.00000214
      0.20000000	     -1.14946759	      0.43530399	      3.11054198	     -1.29258018	      0.90742977	     -0.18559072	     22.46022599	      1.56930249	      0.00000000	    -23.24476841	      8.46267699	     -6.54699518	      2.98525876	      0.00000000	    -39.39742989	    -10.53788328	     -5.00000214
      0.21000000	     -1.35106699	      0.44270357	      3.25668253	     -1.28224538	      0.90854845	     -0.18513273	     21.79339742	      1.57214994	      0.00000000	    -23.08855252	      9.39736526	     -4.31734494	      3.06730809	      0.00000000	    -42.94265301	    -10.29585387	     -5.00000214
      0.22000000	     -1.50259361	      0.40447605	      3.48877190	     -1.27172726	      0.90984840	     -0.18471573	     20.93908096	      1.61892106	      0.00000000	    -22.69028069	     10.15607443	     -2.14892027	      3.08292988	      0.00000000	    -46.26555266	     -9.37625677	     -5.00000214
      0.23000000	     -1.62587392	      0.37066341	      3.76544104	     -1.26114139	      0.91129185	     -0.18447158	     20.02747020	      1.65302375	      0.00000000	    -22.23668597	     10.77392109	     -0.03062202	      3.11605219	      0.00000000	    -49.29121841	     -8.31377098	     -5.00000214
      0.24000000	     -1.69998116	      0.31610174	      4.10720783	     -1.25032931	      0.91291009	     -0.18426672	     18.97824052	      1.72312360	      0.00000000	    -21.61271921	     11.21075930	      2.00673078	      3.10980267	      0.00000000	    -51.97888118	     -7.79937849	     -5.00000214
      0.25000000	     -1.79796350	      0.30172718	      4.43830723	     -1.23972657	      0.91430596	     -0.18426949	     18.10296024	      1.74912438	      0.00000000	    -21.24820827	     11.88356834	      4.06555603	      3.19577484	      0.00000000	    -54.44019632	     -6.31232920	     -5.00000214
      0.26000000	     -1.86183441	      0.26616941	      4.78918305	     -1.22897768	      0.91579767	     -0.18420059	     17.11416679	      1.82606434	      0.00000000	    -20.72198423	     12.36531006	      6.03106052	      3.24793123	      0.00000000	    -56.52044694	     -5.49114404	     -5.00000214
      0.27000000	     -1.89819969	      0.22185945	      5.15341860	     -1.21816223	      0.91729196	     -0.18414551	     16.03515298	      1.93767776	      0.00000000	    -20.07270786	     12.71106716	      7.91441681	      3.29132617	      0.00000000	    -58.24555188	     -5.06137260	     -5.00000214
      0.28000000	     -1.94362841	      0.20485644	      5.43909538	     -1.20742051	      0.91871187	     -0.18417002	     14.94673513	      2.03186714	      0.00000000	    -19.36507875	     13.02398023	      9.72641857	      3.41762193	      0.00000000	    -59.59777483	     -4.62670924	     -5.00000214
      0.29000000	     -1.92907425	      0.13052780	      5.72956442	     -1.19642996	      0.92002168	     -0.18393312	     13.70332423	      2.23466949	      0.00000000	    -18.50194971	     13.46432265	     11.37905343	      3.42948250	      0.00000000	    -60.64858945	     -3.27043183	     -5.00000214
      0.30000000	     -1.95247675	      0.07183638	      5.97461618	     -1.18565372	      0.92123537	     -0.18376264	     12.49040416	      2.41930115	      0.00000000	    -17.57999766	     13.72399344	     13.04701349	      3.48581457	      0.00000000	    -61.38147902	     -2.82125721	     -5.00000214
      0.31000000	     -1.88920849	      0.03186175	      6.18971452	     -1.17440544	      0.92247951	     -0.18368516	     11.00868564	      2.58825184	      0.00000000	    -16.35654434	     13.94746101	     14.43937626	      3.55711042	      0.00000000	    -61.69807044	     -1.66131910	     -5.00000214
      0.32000000	     -1.86871351	     -0.03800746	      6.38263589	     -1.16338072	      0.92347090	     -0.18347096	      9.64862047	      2.79453860	      0.00000000	    -15.24691902	     14.16763880	     15.89269469	      3.58087498	      0.00000000	    -61.81981932	     -0.95197730	     -5.00000214
      0.33000000	     -1.79836647	     -0.07632472	      6.56857380	     -1.15208586	      0.92436756	     -0.18343039	      8.17585036	      2.95622766	      0.00000000	    -14.05645781	     14.33529496	     17.16198349	      3.63614045	      0.00000000	    -61.59656412	     -0.05442107	     -5.00000214
      0.34000000	     -1.75892697	     -0.13207717	      6.75095185	     -1.14096619	      0.92497872	     -0.18335344	      6.80886658	      3.13736779	      0.00000000	    -12.97122993	     14.49914267	     18.45630905	      3.65195848	      0.00000000	    -61.17386795	      0.67331455	     -5.00000214
      0.35000000	     -1.68705425	     -0.16157398	      6.89545823	     -1.12966942	      0.92546198	     -0.18338342	      5.39727251	      3.28404249	      0.00000000	    -11.88233988	     14.62231275	     19.60099128	      3.69338907	      0.00000000	    -60.43008266	      1.42703368	     -5.00000214
      0.36000000	     -1.62484197	     -0.19685926	      7.02871993	     -1.11842630	      0.92571134	     -0.18347348	      4.03022388	      3.43186101	      0.00000000	    -10.84555865	     14.72292253	     20.70943134	      3.71765067	      0.00000000	    -59.45574500	      2.07253528	     -5.00000214
      0.37000000	     -1.55664263	     -0.22480892	      7.13738376	     -1.10712687	      0.92575228	     -0.18363105	      2.66304068	      3.57156204	      0.00000000	     -9.83302389	     14.99887638	     21.73642889	      3.74288428	      0.00000000	    -58.23482213	      2.46752440	     -5.00000214
      0.38000000	     -1.49507487	     -0.21456667	      7.20808720	     -1.09583218	      0.92558421	     -0.18399811	      1.31916223	      3.65066126	      0.00000000	     -8.86323911	     15.22333520	     22.67532601	      3.82717559	      0.00000000	    -56.76009792	      2.86087960	     -5.00000214
